<svg xmlns="http://www.w3.org/2000/svg" viewBox="0 0 900 1100" role="img" aria-label="Christ icon">
  <defs>
    <linearGradient id="bg" x1="0" y1="0" x2="1" y2="1">
      <stop offset="0" stop-color="#f7e6bd"/>
      <stop offset="1" stop-color="#9d692b"/>
    </linearGradient>
    <radialGradient id="halo" cx="50%" cy="28%" r="24%">
      <stop offset="0" stop-color="#fff8d8"/>
      <stop offset=".55" stop-color="#dfb75f"/>
      <stop offset="1" stop-color="#8a5a22"/>
    </radialGradient>
  </defs>
  <rect width="900" height="1100" fill="url(#bg)"/>
  <rect x="50" y="52" width="800" height="996" fill="none" stroke="#fff2c7" stroke-width="18"/>
  <circle cx="450" cy="310" r="176" fill="url(#halo)"/>
  <path d="M365 288c14-70 152-70 170 0 18 76-22 152-84 152-64 0-104-76-86-152Z" fill="#6b3f24"/>
  <path d="M312 480c74-54 202-54 276 0 72 128 86 294 58 474H254c-28-180-14-346 58-474Z" fill="#2d4265"/>
  <path d="M322 514c62 38 194 38 256 0v398H322Z" fill="#7d2631" opacity=".9"/>
  <path d="M268 668h364M294 748h312M326 828h248" stroke="#e6c579" stroke-width="18" opacity=".75"/>
  <path d="M450 164v292M304 310h292" stroke="#fff0b6" stroke-width="20" opacity=".72"/>
</svg>
