<svg xmlns="http://www.w3.org/2000/svg" viewBox="0 0 900 1100" role="img" aria-label="Kazan icon">
  <defs>
    <linearGradient id="g" x1="0" y1="0" x2="1" y2="1">
      <stop offset="0" stop-color="#fff0c8"/>
      <stop offset="1" stop-color="#8c5b2c"/>
    </linearGradient>
  </defs>
  <rect width="900" height="1100" fill="url(#g)"/>
  <rect x="56" y="56" width="788" height="988" fill="none" stroke="#fff6d8" stroke-width="18"/>
  <circle cx="430" cy="306" r="178" fill="#d8aa51"/>
  <circle cx="550" cy="390" r="102" fill="#efd48d"/>
  <path d="M292 438c46-114 236-114 284 0 54 116 66 298 40 506H250c-26-208-12-390 42-506Z" fill="#7c2531"/>
  <path d="M482 440c35-54 128-50 162 10 34 80 38 196 24 318H486c-20-126-16-244-4-328Z" fill="#24456d"/>
  <path d="M338 516c80 56 184 56 270 0M320 632c108 64 230 64 352 0M300 760h330" stroke="#f0cf76" stroke-width="20" opacity=".72"/>
</svg>
