<svg xmlns="http://www.w3.org/2000/svg" viewBox="0 0 900 1100" role="img" aria-label="Saint Nicholas icon">
  <rect width="900" height="1100" fill="#c6913d"/>
  <rect x="50" y="50" width="800" height="1000" fill="#f2dba0" opacity=".45"/>
  <circle cx="450" cy="300" r="190" fill="#edcd72"/>
  <path d="M342 278c10-82 206-82 216 0 12 86-34 166-108 166s-120-80-108-166Z" fill="#64412c"/>
  <path d="M274 506c90-86 264-86 354 0 54 126 58 284 32 438H240c-26-154-20-312 34-438Z" fill="#f5f1dc"/>
  <path d="M294 560h312v96H294zM330 716h240v174H330z" fill="#8d2937"/>
  <path d="M450 556v334M314 664h272" stroke="#c7973f" stroke-width="24"/>
  <path d="M300 232h300" stroke="#fff2bf" stroke-width="18"/>
</svg>
