<svg xmlns="http://www.w3.org/2000/svg" viewBox="0 0 640 800" role="img">
  <rect width="640" height="800" fill="#0B0B0A"/>
  <rect x="44" y="44" width="552" height="712" fill="#15130F" stroke="#D6A84F" stroke-width="8"/>
  <circle cx="320" cy="250" r="118" fill="none" stroke="#F1D18A" stroke-width="12" opacity=".75"/>
  <path d="M206 420c30-78 68-118 114-118s84 40 114 118v260H206V420Z" fill="#201B13" stroke="#D6A84F" stroke-width="5"/>
  <path d="M278 464h84v168h-84V464Z" fill="#D6A84F"/>
  <path d="M248 512h144v38H248v-38Z" fill="#F1D18A"/>
  <path d="M258 244c20-36 42-54 62-54s42 18 62 54c-18 30-38 45-62 45s-44-15-62-45Z" fill="#F1D18A"/>
  <path d="M214 696h212" stroke="#D6A84F" stroke-width="6" stroke-linecap="round"/>
</svg>
