<svg xmlns="http://www.w3.org/2000/svg" viewBox="0 0 180 180" role="img">
  <rect width="180" height="180" fill="#FFFFFF"/>
  <path fill="#0B0B0A" d="M14 14h44v44H14V14Zm10 10v24h24V24H24Zm98-10h44v44h-44V14Zm10 10v24h24V24h-24ZM14 122h44v44H14v-44Zm10 10v24h24v-24H24Zm64-106h12v12H88V26Zm24 0h10v22h-10V26ZM74 48h14v10H74V48Zm24 12h24v14H98V60Zm42 12h12v14h-12V72ZM70 84h12v12H70V84Zm24 0h14v24H94V84Zm28 0h12v12h-12V84Zm28 0h16v16h-16V84ZM70 112h24v12H70v-12Zm36 0h12v24h-12v-24Zm24 0h36v12h-36v-12Zm-54 28h12v26H76v-26Zm24 12h18v14h-18v-14Zm34-18h12v12h-12v-12Zm20 18h12v14h-12v-14Z"/>
  <path fill="#D6A84F" d="M82 26h6v6h-6v-6Zm54 54h8v8h-8v-8Zm-58 52h8v8h-8v-8Zm68-18h8v8h-8v-8Z"/>
</svg>
