<?xml version="1.0" standalone="no"?>
<!DOCTYPE svg PUBLIC "-//W3C//DTD SVG 20010904//EN"
 "http://www.w3.org/TR/2001/REC-SVG-20010904/DTD/svg10.dtd">
<svg version="1.0" xmlns="http://www.w3.org/2000/svg"
 width="512.000000pt" height="512.000000pt" viewBox="0 0 512.000000 512.000000"
 preserveAspectRatio="xMidYMid meet">

<g transform="translate(0.000000,512.000000) scale(0.100000,-0.100000)"
fill="#000000" stroke="none">
<path d="M2110 4875 l0 -245 -275 0 -275 0 0 -450 0 -450 275 0 275 0 0 -105
0 -105 -650 0 -650 0 0 -450 0 -450 650 0 650 0 0 -370 c0 -220 -4 -370 -9
-370 -5 0 -102 20 -215 45 -114 25 -211 45 -216 45 -7 0 -9 -159 -8 -452 l3
-452 150 -33 c83 -18 183 -40 223 -49 l72 -16 0 -484 0 -484 450 0 450 0 0
375 c0 206 2 375 5 375 3 0 96 -20 207 -45 111 -25 210 -45 220 -45 17 0 18
22 18 450 l0 450 -22 5 c-13 3 -104 23 -203 45 -99 22 -190 42 -202 45 l-23 5
0 480 0 480 650 0 650 0 0 450 0 450 -650 0 -650 0 0 105 0 105 275 0 275 0 0
450 0 450 -275 0 -275 0 0 245 0 245 -450 0 -450 0 0 -245z m600 -300 l0 -245
275 0 275 0 0 -150 0 -150 -275 0 -275 0 0 -405 0 -405 650 0 650 0 0 -150 0
-150 -650 0 -650 0 2 -752 3 -752 130 -28 c72 -15 172 -38 223 -49 l92 -21 0
-144 c0 -79 -4 -144 -9 -144 -5 0 -100 20 -212 45 -112 25 -209 45 -216 45
-10 0 -13 -87 -13 -410 l0 -410 -150 0 -150 0 0 454 0 454 -92 21 c-51 12
-151 34 -223 50 l-130 28 -3 146 c-1 81 -1 147 1 147 3 0 365 -79 430 -94 16
-4 17 35 17 705 l0 709 -650 0 -650 0 0 150 0 150 650 0 650 0 0 405 0 405
-275 0 -275 0 0 150 0 150 275 0 275 0 0 245 0 245 150 0 150 0 0 -245z"/>
</g>
</svg>
