<?xml version="1.0" standalone="no"?>
<!DOCTYPE svg PUBLIC "-//W3C//DTD SVG 20010904//EN"
 "http://www.w3.org/TR/2001/REC-SVG-20010904/DTD/svg10.dtd">
<svg version="1.0" xmlns="http://www.w3.org/2000/svg"
 width="1254.000000pt" height="1254.000000pt" viewBox="0 0 1254.000000 1254.000000"
 preserveAspectRatio="xMidYMid meet">

<g transform="translate(0.000000,1254.000000) scale(0.100000,-0.100000)"
fill="#000000" stroke="none">
<path d="M6094 10200 c-945 -79 -1743 -691 -2073 -1590 -77 -208 -124 -430
-141 -664 -7 -94 -10 -939 -8 -2521 l3 -2380 543 -3 542 -2 0 60 0 60 -450 0
-450 0 3 2388 c3 2225 4 2394 21 2496 23 146 75 349 121 471 84 228 246 513
390 685 86 102 263 273 361 347 644 489 1520 582 2239 239 393 -188 698 -462
930 -836 177 -286 303 -661 335 -995 6 -72 10 -917 10 -2452 l0 -2343 -442 -2
-443 -3 0 -55 0 -55 538 -3 537 -2 0 2457 c0 1612 -4 2489 -10 2548 -40 350
-180 747 -368 1044 -197 309 -461 573 -767 766 -263 166 -628 294 -952 334
-122 15 -355 21 -469 11z"/>
<path d="M6422 9290 c0 -19 2 -27 5 -17 2 9 2 25 0 35 -3 9 -5 1 -5 -18z"/>
<path d="M6575 9213 c-40 -224 -72 -428 -68 -436 12 -19 22 11 36 110 38 257
59 415 55 419 -3 2 -13 -40 -23 -93z"/>
<path d="M6107 9155 c5 -172 20 -365 28 -373 15 -15 15 23 0 209 -23 283 -35
353 -28 164z"/>
<path d="M5927 9220 c6 -66 48 -324 63 -397 14 -63 33 -72 24 -11 -17 104 -92
457 -87 408z"/>
<path d="M6771 9232 c-49 -154 -141 -485 -136 -490 11 -11 23 14 48 103 40
142 108 417 104 421 -2 2 -9 -13 -16 -34z"/>
<path d="M6396 9073 c-18 -196 -21 -293 -7 -293 4 0 11 30 14 68 10 102 21
402 15 402 -3 0 -12 -80 -22 -177z"/>
<path d="M5751 9230 c-2 -10 117 -482 123 -488 20 -20 15 26 -18 149 -37 136
-103 349 -105 339z"/>
<path d="M5580 9199 c0 -22 168 -481 181 -493 24 -25 -6 67 -105 319 -60 152
-76 188 -76 174z"/>
<path d="M6867 9018 c-104 -250 -118 -288 -115 -307 3 -12 7 -10 18 9 17 32
181 473 176 477 -1 2 -37 -79 -79 -179z"/>
<path d="M6258 8998 c-3 -106 -1 -197 4 -202 4 -6 8 81 8 192 0 111 -2 202 -4
202 -2 0 -6 -87 -8 -192z"/>
<path d="M6987 8911 c-68 -139 -120 -254 -116 -256 4 -3 12 1 18 8 23 29 234
488 226 495 -2 3 -60 -109 -128 -247z"/>
<path d="M5420 9147 c0 -8 125 -295 179 -409 22 -49 45 -88 51 -88 5 0 10 3
10 6 0 7 -230 486 -236 493 -2 2 -4 1 -4 -2z"/>
<path d="M5310 9014 c11 -28 116 -231 181 -349 22 -41 45 -72 50 -69 5 3 -11
45 -37 92 -73 136 -196 352 -200 352 -2 0 1 -11 6 -26z"/>
<path d="M7187 8968 c-20 -35 -74 -128 -121 -208 -47 -80 -86 -151 -86 -157 0
-20 14 -15 29 10 24 38 203 371 212 395 15 40 2 23 -34 -40z"/>
<path d="M7322 8888 c-100 -135 -242 -340 -242 -349 0 -29 34 15 170 216 83
124 149 225 146 225 -3 0 -36 -42 -74 -92z"/>
<path d="M5162 8947 c41 -74 264 -427 271 -427 4 0 7 6 7 13 0 14 -276 437
-285 437 -3 0 0 -11 7 -23z"/>
<path d="M7413 8758 c-203 -228 -245 -279 -238 -286 8 -8 19 5 202 223 70 83
133 158 141 168 8 9 13 17 9 17 -3 0 -54 -55 -114 -122z"/>
<path d="M5021 8855 c9 -15 254 -334 288 -375 48 -57 48 -26 0 37 -61 82 -305
368 -288 338z"/>
<path d="M4910 8725 c19 -22 76 -82 126 -135 50 -52 117 -123 149 -157 32 -35
62 -63 67 -63 20 0 3 25 -64 96 -83 87 -330 317 -278 259z"/>
<path d="M7430 8580 c-102 -98 -181 -182 -178 -186 10 -9 137 109 303 284 135
141 68 89 -125 -98z"/>
<path d="M6136 8660 c-429 -49 -805 -309 -1004 -696 -98 -191 -132 -325 -139
-544 -5 -143 -2 -180 16 -278 34 -177 96 -329 199 -487 45 -68 270 -305 290
-305 6 0 20 17 32 37 l21 36 -33 26 c-126 97 -235 236 -318 406 -191 387 -159
827 87 1198 98 148 292 321 448 400 73 36 208 82 305 103 116 25 343 25 458 0
478 -102 836 -464 938 -948 24 -113 24 -343 0 -453 -53 -242 -168 -454 -338
-622 -46 -46 -92 -89 -102 -96 -18 -13 -18 -18 -6 -46 7 -17 17 -34 22 -37 14
-9 144 103 211 181 209 242 320 536 320 845 0 152 -15 254 -55 380 -109 344
-342 617 -663 777 -196 98 -470 147 -689 123z"/>
<path d="M7650 8579 c-195 -152 -319 -254 -320 -261 -1 -18 25 -4 100 57 72
58 292 246 330 281 35 34 -3 7 -110 -77z"/>
<path d="M4765 8633 c99 -101 390 -343 413 -343 22 0 24 -2 -208 185 -209 169
-236 190 -205 158z"/>
<path d="M7635 8393 c-238 -170 -238 -170 -225 -178 13 -8 65 28 248 172 146
114 181 143 172 143 -3 0 -90 -62 -195 -137z"/>
<path d="M4675 8483 c10 -11 92 -70 304 -220 101 -71 144 -93 126 -63 -8 12
-143 106 -270 186 -168 107 -171 108 -160 97z"/>
<path d="M4570 8347 c0 -6 425 -252 453 -262 9 -4 17 -3 17 3 0 6 -37 32 -82
58 -108 62 -388 207 -388 201z"/>
<path d="M7835 8284 c-66 -29 -128 -54 -138 -54 -17 0 -190 -83 -214 -102 -7
-6 -10 -14 -7 -19 3 -5 38 8 77 30 40 22 95 47 122 57 54 18 285 131 285 139
0 6 15 12 -125 -51z"/>
<path d="M4585 8158 c81 -42 393 -188 401 -188 2 0 4 5 4 10 0 6 -39 29 -87
51 -133 61 -383 169 -391 169 -4 -1 29 -19 73 -42z"/>
<path d="M7840 8131 c-207 -84 -308 -132 -293 -138 6 -2 76 23 155 57 157 67
329 148 313 148 -5 0 -84 -30 -175 -67z"/>
<path d="M6130 7880 l0 -170 -177 -2 -178 -3 -3 -137 -3 -138 181 0 180 0 0
-115 0 -115 -37 -1 c-21 0 -166 -1 -323 -1 -157 1 -298 -2 -313 -5 l-28 -5 3
-131 3 -132 348 -3 347 -2 0 -630 0 -631 -30 16 c-16 8 -95 53 -174 100 -80
47 -148 85 -151 85 -3 0 -4 -68 -3 -152 l3 -151 177 -101 178 -101 0 -492 0
-493 135 0 135 0 2 411 3 410 152 -91 c84 -50 160 -93 168 -96 13 -5 15 14 15
144 l0 150 -170 97 -170 98 0 713 0 714 350 0 c273 0 350 3 351 13 0 6 1 65 1
131 0 88 -3 121 -13 128 -8 5 -157 8 -349 6 l-335 -3 -3 118 -3 117 181 0 180
0 0 140 0 140 -180 0 -180 0 0 170 0 170 -135 0 -135 0 0 -170z"/>
<path d="M8000 8020 c-30 -10 -126 -41 -214 -70 -202 -65 -208 -68 -201 -79 7
-12 462 143 484 165 8 7 -14 3 -69 -16z"/>
<path d="M4480 8026 c0 -14 458 -178 465 -167 6 11 -39 30 -268 107 -194 66
-197 67 -197 60z"/>
<path d="M4420 7872 c22 -14 443 -132 468 -132 12 0 22 4 22 9 0 5 -105 35
-232 66 -128 31 -242 58 -253 61 -15 4 -17 3 -5 -4z"/>
<path d="M7861 7822 c-147 -36 -236 -62 -239 -71 -3 -10 3 -12 29 -6 46 9 473
127 478 131 12 11 -55 -3 -268 -54z"/>
<path d="M4361 7716 c3 -3 70 -19 150 -35 277 -56 391 -70 367 -46 -3 3 -108
21 -234 40 -126 20 -242 38 -259 41 -16 4 -27 4 -24 0z"/>
<path d="M7970 7689 c-288 -44 -320 -50 -320 -61 0 -13 49 -7 295 38 172 31
264 53 225 52 -8 0 -98 -13 -200 -29z"/>
<path d="M4362 7555 c6 -7 271 -39 411 -50 56 -5 87 -4 87 3 0 12 -44 18 -210
31 -238 19 -294 22 -288 16z"/>
<path d="M8115 7554 c-16 -1 -123 -8 -237 -15 -171 -10 -208 -14 -208 -27 0
-12 13 -13 78 -8 216 19 400 39 427 46 l30 8 -30 -1 c-16 0 -43 -1 -60 -3z"/>
<path d="M4385 7390 c29 -12 465 -12 465 0 0 6 -87 10 -242 9 -145 0 -235 -4
-223 -9z"/>
<path d="M7680 7390 c0 -12 406 -13 465 -1 26 6 -51 9 -212 10 -163 1 -253 -3
-253 -9z"/>
<path d="M7670 7280 c0 -17 12 -19 208 -35 181 -15 279 -19 271 -11 -2 2 -92
14 -199 25 -107 12 -214 24 -237 27 -28 3 -43 1 -43 -6z"/>
<path d="M4570 7260 c-295 -32 -262 -39 70 -15 113 8 208 15 213 15 4 0 7 5 7
10 0 14 -96 11 -290 -10z"/>
<path d="M4795 7154 c-38 -7 -146 -28 -240 -46 -93 -17 -164 -33 -158 -35 11
-4 362 48 442 65 19 4 36 13 39 20 2 6 0 11 -5 11 -4 -1 -39 -7 -78 -15z"/>
<path d="M7650 7151 c0 -5 8 -12 18 -15 22 -7 177 -31 322 -51 63 -9 129 -18
145 -21 17 -4 27 -4 24 0 -7 7 -158 39 -344 71 -156 28 -165 29 -165 16z"/>
<path d="M4745 7004 c-164 -43 -341 -97 -329 -101 20 -5 478 113 482 125 5 17
-5 15 -153 -24z"/>
<path d="M7632 7028 c3 -7 40 -23 84 -35 107 -31 395 -95 400 -90 5 5 -43 19
-271 81 -216 59 -218 59 -213 44z"/>
<path d="M4765 6865 c-221 -86 -361 -144 -352 -144 4 -1 92 28 195 64 305 106
348 125 325 138 -5 2 -80 -24 -168 -58z"/>
<path d="M7600 6911 c0 -5 19 -17 43 -26 68 -28 450 -155 454 -151 4 3 -479
186 -491 186 -3 0 -6 -4 -6 -9z"/>
<path d="M4760 6716 c-267 -134 -340 -181 -134 -85 315 146 378 180 332 179
-7 0 -96 -43 -198 -94z"/>
<path d="M7560 6802 c0 -10 45 -32 260 -129 179 -81 210 -94 210 -89 0 6 -446
226 -458 226 -7 0 -12 -4 -12 -8z"/>
<path d="M7506 6712 c-6 -10 97 -74 279 -174 55 -31 118 -66 140 -78 22 -13
36 -18 30 -12 -9 10 -281 178 -397 246 -25 15 -49 23 -52 18z"/>
<path d="M4935 6669 c-100 -58 -355 -220 -355 -226 0 -2 3 -2 8 0 4 3 66 37
137 77 189 105 295 170 295 181 0 15 -12 11 -85 -32z"/>
<path d="M7440 6612 c0 -10 22 -26 229 -170 91 -63 178 -124 194 -134 15 -11
27 -17 27 -14 0 12 -426 326 -442 326 -4 0 -8 -4 -8 -8z"/>
<path d="M5004 6569 c-75 -53 -304 -227 -324 -247 -13 -13 -13 -14 0 -6 56 31
410 282 410 290 0 14 -35 -2 -86 -37z"/>
<path d="M7370 6520 c0 -5 19 -27 43 -49 70 -64 389 -323 393 -318 2 2 -13 17
-34 34 -20 17 -116 101 -212 187 -96 85 -178 156 -182 156 -5 0 -8 -4 -8 -10z"/>
<path d="M5054 6443 c-241 -212 -324 -287 -324 -291 0 -3 8 2 18 10 9 8 75 61
147 119 148 118 263 224 254 234 -4 3 -47 -29 -95 -72z"/>
<path d="M7290 6427 c0 -17 213 -241 316 -332 l79 -70 -94 105 c-110 122 -289
310 -296 310 -3 0 -5 -6 -5 -13z"/>
<path d="M5119 6323 c-127 -131 -243 -262 -237 -269 6 -6 358 356 358 368 0
19 -21 2 -121 -99z"/>
<path d="M5278 6268 c-25 -40 -74 -125 -108 -188 -34 -63 -72 -130 -83 -149
-11 -19 -16 -31 -9 -27 6 3 41 57 79 119 37 62 95 155 129 209 56 86 65 108
44 108 -4 0 -27 -33 -52 -72z"/>
<path d="M7175 6331 c-5 -9 296 -473 303 -466 2 1 -26 51 -62 109 -37 59 -81
137 -100 174 -19 37 -44 76 -56 87 -12 11 -33 39 -47 62 -27 46 -29 48 -38 34z"/>
<path d="M5319 6044 c-113 -235 -117 -244 -101 -229 17 16 230 434 224 440 -3
3 -8 5 -12 5 -3 0 -53 -97 -111 -216z"/>
<path d="M7150 6093 c116 -222 162 -305 167 -300 8 9 -222 457 -235 457 -9 0
17 -59 68 -157z"/>
</g>
</svg>
